<?xml version="1.0" encoding="utf-8"?>
<!-- Generator: Adobe Illustrator 27.2.0, SVG Export Plug-In . SVG Version: 6.00 Build 0)  -->
<svg version="1.1" id="_레이어_2" xmlns="http://www.w3.org/2000/svg" xmlns:xlink="http://www.w3.org/1999/xlink" x="0px"
	 y="0px" viewBox="0 0 630 141.6" style="enable-background:new 0 0 630 141.6;" xml:space="preserve">
<g>
	<g>
		<g>
			<path d="M176.1,41h23.7l0.8,100.5h-23.7C176.8,141.5,176.1,41,176.1,41z"/>
			<path d="M217.5,71.2v-0.4c0-38.9,29.1-70.8,70.6-70.8c25.2,0,40.5,8.8,53.6,21.3l-15.5,17.8c-11-10.2-22.7-17-38.3-17
				c-26,0-45.2,21.5-45.2,48.3v0.4c0,26.8,19,48.5,45.2,48.5c16.8,0,27.6-6.7,39.3-17.6l15.5,15.7c-14.3,14.9-29.9,24.2-55.5,24.2
				C247.3,141.6,217.5,110.5,217.5,71.2L217.5,71.2L217.5,71.2z"/>
			<path d="M348.2,71.2v-0.4C348.2,32.3,377.9,0,420,0s71.4,31.9,71.4,70.4v0.4c0,38.5-29.7,70.8-71.8,70.8S348.2,109.7,348.2,71.2z
				 M466.1,71.2v-0.4c0-26.6-19.4-48.7-46.5-48.7s-46.2,21.7-46.2,48.3v0.4c0,26.6,19.4,48.5,46.5,48.5S466.1,97.8,466.1,71.2z"/>
			<path d="M506.6,0h23.1l75.9,97.9V0H630v141.6h-20.8L531.1,40.9v100.7h-24.5L506.6,0L506.6,0L506.6,0z"/>
		</g>
		<circle cx="187.9" cy="15.3" r="15.3"/>
	</g>
	<g>
		<polygon points="96.8,54.1 53.3,0.7 0,0.7 66.7,86 21.3,141.6 25.6,141.6 92.5,59.2 		"/>
		<path d="M166.6,141.6l-64.5-82.2l47.1-58.8h-3.8L71.8,91.2l2.5,2.8l0,0l39.8,47.6H166.6z M100.1,61.9l60.3,76.7l-44.7,0.3
			L75.9,91.4L100.1,61.9z"/>
	</g>
</g>
</svg>
