<?xml version="1.0" encoding="utf-8"?>
<!-- Generator: Adobe Illustrator 27.2.0, SVG Export Plug-In . SVG Version: 6.00 Build 0)  -->
<svg version="1.1" id="_레이어_2" xmlns="http://www.w3.org/2000/svg" xmlns:xlink="http://www.w3.org/1999/xlink" x="0px"
	 y="0px" viewBox="0 0 350 450" style="enable-background:new 0 0 350 450;" xml:space="preserve">
<style type="text/css">
	.st0{fill:#FFFFFF;}
	.st1{fill:#FF0090;}
</style>
<g>
	<g>
		<g>
			<path class="st0" d="M27.3,338.5h15.5l0.5,65.9H27.8L27.3,338.5z"/>
			<path class="st0" d="M54.5,358.4v-0.3c0-25.5,19.1-46.4,46.3-46.4c16.5,0,26.5,5.8,35.2,14l-10.1,11.7
				c-7.2-6.7-14.9-11.2-25.1-11.2c-17.1,0-29.6,14.1-29.6,31.7v0.3c0,17.6,12.4,31.8,29.6,31.8c11,0,18.1-4.4,25.8-11.5l10.1,10.3
				c-9.4,9.8-19.6,15.9-36.4,15.9C74,404.5,54.5,384.1,54.5,358.4L54.5,358.4L54.5,358.4z"/>
			<path class="st0" d="M140.1,358.4v-0.3c0-25.3,19.5-46.4,47.1-46.4s46.8,20.9,46.8,46.2v0.3c0,25.3-19.5,46.4-47.1,46.4
				S140.2,383.6,140.1,358.4L140.1,358.4L140.1,358.4z M217.5,358.4v-0.3c0-17.5-12.7-31.9-30.5-31.9s-30.3,14.2-30.3,31.7v0.3
				c0,17.5,12.7,31.8,30.5,31.8S217.5,375.8,217.5,358.4z"/>
			<path class="st0" d="M244.1,311.7h15.1l49.8,64.2v-64.2h16v92.9h-13.7l-51.2-66.1v66.1h-16.1L244.1,311.7L244.1,311.7
				L244.1,311.7z"/>
		</g>
		<circle class="st0" cx="35" cy="321.7" r="10"/>
	</g>
	<g>
		<polygon class="st1" points="198.8,139.6 122.2,45.6 28.5,45.6 145.9,195.7 65.9,293.5 73.6,293.5 191.2,148.6 		"/>
		<path class="st1" d="M321.5,293.5L208,148.8l82.9-103.3h-6.7L154.8,204.8l4.3,4.9l0,0l70,83.7H321.5z M204.6,153.3l106.1,134.9
			l-78.5,0.5l-70.1-83.6L204.6,153.3z"/>
	</g>
</g>
</svg>
